<?xml version="1.0" encoding="utf-8"?>
<!-- Generator: Adobe Illustrator 22.0.1, SVG Export Plug-In . SVG Version: 6.00 Build 0)  -->
<svg version="1.1" id="Layer_1" xmlns="http://www.w3.org/2000/svg" xmlns:xlink="http://www.w3.org/1999/xlink" x="0px" y="0px"
	 viewBox="0 0 37.6 48" style="enable-background:new 0 0 37.6 48;" xml:space="preserve">
<style type="text/css">
	.st0{fill:#0C8140;}
</style>
<g>
	<path class="st0" d="M28.8,17.6h-20C8.4,17.6,8,18,8,18.4c0,0.4,0.4,0.8,0.8,0.8h20c0.4,0,0.8-0.4,0.8-0.8
		C29.6,18,29.2,17.6,28.8,17.6L28.8,17.6z M28.8,17.6"/>
	<path class="st0" d="M8.8,12.8h8c0.4,0,0.8-0.4,0.8-0.8c0-0.4-0.4-0.8-0.8-0.8h-8C8.4,11.2,8,11.6,8,12C8,12.4,8.4,12.8,8.8,12.8
		L8.8,12.8z M8.8,12.8"/>
	<path class="st0" d="M28.8,24h-20C8.4,24,8,24.4,8,24.8c0,0.4,0.4,0.8,0.8,0.8h20c0.4,0,0.8-0.4,0.8-0.8C29.6,24.4,29.2,24,28.8,24
		L28.8,24z M28.8,24"/>
	<path class="st0" d="M28.8,30.4h-20c-0.4,0-0.8,0.4-0.8,0.8C8,31.6,8.4,32,8.8,32h20c0.4,0,0.8-0.4,0.8-0.8
		C29.6,30.8,29.2,30.4,28.8,30.4L28.8,30.4z M28.8,30.4"/>
	<path class="st0" d="M28.8,36.8h-20c-0.4,0-0.8,0.4-0.8,0.8c0,0.4,0.4,0.8,0.8,0.8h20c0.4,0,0.8-0.4,0.8-0.8
		C29.6,37.2,29.2,36.8,28.8,36.8L28.8,36.8z M28.8,36.8"/>
	<path class="st0" d="M25.9,0H0v48h37.6V11.7L25.9,0z M26.4,2.7l8.5,8.5h-8.5V2.7z M1.6,46.4V1.6h23.2v11.2H36v33.6H1.6z M1.6,46.4"
		/>
</g>
</svg>
