<svg xmlns="http://www.w3.org/2000/svg" viewBox="0 0 48 39.2">
  <defs>
    <style>
      .cls-1 {
        fill: #0c8140;
      }
    </style>
  </defs>
  <title>Asset 1</title>
  <g id="Layer_2" data-name="Layer 2">
    <g id="Layer_1-2" data-name="Layer 1">
      <path class="cls-1" d="M46,12.8H43.2v-5A2.19,2.19,0,0,0,41,5.6H21.21l-4-5.6h-15A2.19,2.19,0,0,0,0,2.19v35H0A2.08,2.08,0,0,0,.42,38.4a2,2,0,0,0,1.63.8H37.86a2,2,0,0,0,2-1.45L48,15.32v-.14a2.14,2.14,0,0,0-2-2.38ZM1.6,2.19a.58.58,0,0,1,.59-.59h14.2l4,5.6H41a.59.59,0,0,1,.59.59v5H10.18l-.34,0a2,2,0,0,0-1.61,1.42L1.6,32.32ZM38.3,37.27a.46.46,0,0,1-.44.33H2.05a.47.47,0,0,1-.36-.17.5.5,0,0,1-.1-.33L9.75,14.74a.45.45,0,0,1,.43-.34H46c.31,0,.38.44.4.66Z"/>
    </g>
  </g>
</svg>
