<?xml version="1.0" encoding="utf-8"?>
<!-- Generator: Adobe Illustrator 22.0.1, SVG Export Plug-In . SVG Version: 6.00 Build 0)  -->
<svg version="1.1" id="Layer_1" xmlns="http://www.w3.org/2000/svg" xmlns:xlink="http://www.w3.org/1999/xlink" x="0px" y="0px"
	 viewBox="0 0 48 39.2" style="enable-background:new 0 0 48 39.2;" xml:space="preserve">
<style type="text/css">
	.st0{fill:#FFFFFF;}
</style>
<title>Asset 1</title>
<g id="Layer_2_1_">
	<g id="Layer_1-2">
		<path class="st0" d="M46,12.8h-2.8v-5c0-1.2-1-2.2-2.2-2.2c0,0,0,0,0,0H21.2l-4-5.6h-15C1,0,0,1,0,2.2c0,0,0,0,0,0v35l0,0
			c0,0.4,0.2,0.9,0.4,1.2c0.4,0.5,1,0.8,1.6,0.8h35.8c0.9,0,1.7-0.6,2-1.5L48,15.3v-0.1c0.1-1.2-0.7-2.2-1.9-2.4
			C46.1,12.8,46,12.8,46,12.8z M1.6,2.2c0-0.3,0.2-0.6,0.6-0.6c0,0,0,0,0,0h14.2l4,5.6H41c0.3,0,0.6,0.3,0.6,0.6c0,0,0,0,0,0v5H10.2
			H9.8c-0.8,0.1-1.4,0.7-1.6,1.4L1.6,32.3V2.2z M38.3,37.3c-0.1,0.2-0.2,0.3-0.4,0.3H2c-0.1,0-0.3-0.1-0.4-0.2
			c-0.1-0.1-0.1-0.2-0.1-0.3l8.2-22.4c0-0.2,0.2-0.3,0.4-0.3H46c0.3,0,0.4,0.4,0.4,0.7L38.3,37.3z"/>
	</g>
</g>
</svg>
