<svg xmlns="http://www.w3.org/2000/svg" xmlns:xlink="http://www.w3.org/1999/xlink" viewBox="0 0 409.6 409.61">
  <defs>
    <style>
      .cls-1 {
        fill: none;
      }

      .cls-2 {
        fill: #0c8140;
      }

      .cls-3 {
        clip-path: url(#clip-path);
      }
    </style>
    <clipPath id="clip-path" transform="translate(0 -0.32)">
      <rect class="cls-1" width="409.92" height="410.88"/>
    </clipPath>
  </defs>
  <title>Asset 1</title>
  <g id="Layer_2" data-name="Layer 2">
    <g id="Layer_1-2" data-name="Layer 1">
      <g>
        <path class="cls-2" d="M232.84,194.57a6.86,6.86,0,0,0,6.1,3.72,6.72,6.72,0,0,0,3.09-.74c.41-.21,40.59-20.62,60.41-26.88a6.83,6.83,0,0,0-4.13-13c-20.87,6.6-60.78,26.87-62.47,27.73a6.85,6.85,0,0,0-3,9.19Z" transform="translate(0 -0.32)"/>
        <g class="cls-3">
          <path class="cls-2" d="M238.94,116.38a6.86,6.86,0,0,0,3.09-.75c.41-.2,40.59-20.62,60.41-26.88a6.83,6.83,0,0,0-4.13-13c-20.87,6.6-60.78,26.88-62.47,27.74a6.82,6.82,0,0,0,3.1,12.91Z" transform="translate(0 -0.32)"/>
          <path class="cls-2" d="M402.77,102.72a6.82,6.82,0,0,0-6.82,6.83V375.79a20.51,20.51,0,0,1-20.48,20.48H211.63V380.56c10-3.48,35.88-11.6,61.44-11.6,59.47,0,99.85,13.17,100.25,13.31a6.84,6.84,0,0,0,9-6.48V75.41A6.82,6.82,0,0,0,377,68.75s-5.35-1.19-14.5-2.87A6.83,6.83,0,1,0,360,79.31c3.49.64,6.41,1.2,8.66,1.65V366.72c-15.47-4.06-49.82-11.41-95.57-11.41-29.75,0-59,9.77-68,13.08-8-3.55-32.33-13.08-61.71-13.08A460.05,460.05,0,0,0,41,367V80.7a448.89,448.89,0,0,1,102.4-12.11c24.89,0,46.24,7.75,54.61,11.25V348.48a6.83,6.83,0,0,0,10.35,5.85c.67-.4,68.31-40.8,128.34-60.81a6.83,6.83,0,0,0,4.68-6.48V7.15a6.85,6.85,0,0,0-9.23-6.4C277.48,21.24,222.22,55.63,221.66,56a6.83,6.83,0,1,0,7.24,11.58c.5-.32,48.58-30.24,98.78-50.42v265c-46.6,16.19-95.25,42.64-116,54.47V75.41a6.82,6.82,0,0,0-3.78-6.1,157.79,157.79,0,0,0-64.49-14.38c-61.68,0-109.11,13.35-111.1,13.92a6.82,6.82,0,0,0-4.95,6.56V375.79A6.87,6.87,0,0,0,30,381.24a6.79,6.79,0,0,0,4.11,1.37,7,7,0,0,0,1.87-.26c.48-.13,47.68-13.39,107.36-13.39,25,0,46.28,7.77,54.61,11.26v16H34.13a20.5,20.5,0,0,1-20.47-20.48V109.55a6.83,6.83,0,1,0-13.66,0V375.79a34.17,34.17,0,0,0,34.14,34.13H375.47a34.17,34.17,0,0,0,34.13-34.13V109.55a6.83,6.83,0,0,0-6.83-6.83Z" transform="translate(0 -0.32)"/>
        </g>
        <path class="cls-2" d="M232.84,153.61a6.85,6.85,0,0,0,9.19,3c.41-.21,40.59-20.62,60.41-26.88a6.83,6.83,0,0,0-4.13-13c-20.87,6.6-60.78,26.87-62.47,27.73a6.85,6.85,0,0,0-3,9.19Z" transform="translate(0 -0.32)"/>
        <path class="cls-2" d="M232.84,235.52a6.84,6.84,0,0,0,9.19,3c.41-.2,40.59-20.62,60.41-26.88a6.83,6.83,0,0,0-4.13-13c-20.87,6.6-60.78,26.88-62.47,27.73a6.84,6.84,0,0,0-3,9.18Z" transform="translate(0 -0.32)"/>
        <path class="cls-2" d="M165.4,127c-42.16-9.89-90.06,2.71-92.07,3.25a6.83,6.83,0,0,0,1.76,13.42,6.72,6.72,0,0,0,1.77-.23c.46-.13,46.58-12.26,85.42-3.15A6.83,6.83,0,1,0,165.4,127Z" transform="translate(0 -0.32)"/>
        <path class="cls-2" d="M165.4,168c-42.16-9.88-90.06,2.71-92.07,3.25a6.83,6.83,0,0,0,1.76,13.42,7.17,7.17,0,0,0,1.77-.23c.46-.13,46.58-12.26,85.42-3.15A6.83,6.83,0,1,0,165.4,168Z" transform="translate(0 -0.32)"/>
        <path class="cls-2" d="M232.84,276.49a6.85,6.85,0,0,0,9.19,3c.41-.21,40.59-20.62,60.41-26.88a6.83,6.83,0,0,0-4.13-13c-20.87,6.6-60.78,26.88-62.47,27.74a6.83,6.83,0,0,0-3,9.18Z" transform="translate(0 -0.32)"/>
        <path class="cls-2" d="M165.4,208.93c-42.16-9.89-90.06,2.7-92.07,3.25a6.83,6.83,0,0,0,1.76,13.43,7.18,7.18,0,0,0,1.77-.24c.46-.13,46.58-12.26,85.42-3.15a6.83,6.83,0,1,0,3.12-13.29Z" transform="translate(0 -0.32)"/>
        <path class="cls-2" d="M165.4,290.85c-42.16-9.89-90.06,2.71-92.07,3.25a6.83,6.83,0,0,0,1.76,13.43,6.74,6.74,0,0,0,1.77-.24c.46-.13,46.58-12.26,85.42-3.15a6.83,6.83,0,1,0,3.12-13.29Z" transform="translate(0 -0.32)"/>
        <path class="cls-2" d="M165.4,249.89c-42.16-9.89-90.06,2.7-92.07,3.25a6.83,6.83,0,0,0,1.76,13.43,6.74,6.74,0,0,0,1.77-.24c.46-.13,46.58-12.26,85.42-3.15a6.83,6.83,0,1,0,3.12-13.29Z" transform="translate(0 -0.32)"/>
      </g>
    </g>
  </g>
</svg>
