<svg xmlns="http://www.w3.org/2000/svg" viewBox="0 0 511.996 511.996" width="512" height="512"><path d="M422.056 235.442a144.276 144.276 0 0 0-41.514-12.55 146.061 146.061 0 0 0-26.04-1.394c-5.232.192-10.394.664-15.474 1.393a144.006 144.006 0 0 0-31.218 8.131c-.199.077-.394.159-.594.238a140.196 140.196 0 0 0-4.247 1.726c-.317.137-.631.281-.948.419a140.019 140.019 0 0 0-3.805 1.712c-.606.284-1.203.581-1.803.873a144.286 144.286 0 0 0-4.041 2.047c-.681.358-1.367.71-2.042 1.078-.707.386-1.402.789-2.101 1.187-.657.372-1.315.744-1.965 1.126-.682.401-1.358.815-2.031 1.227a142.265 142.265 0 0 0-3.908 2.472c-.693.454-1.378.916-2.062 1.381-.591.401-1.18.8-1.764 1.209-.823.578-1.636 1.171-2.447 1.764-.429.316-.866.621-1.292.942a147.415 147.415 0 0 0-3.573 2.77c-.4.321-.792.652-1.189.974-.819.67-1.636 1.344-2.44 2.031-.439.374-.872.756-1.305 1.135a145.084 145.084 0 0 0-3.507 3.164c-.796.743-1.582 1.496-2.359 2.256-.338.329-.679.657-1.014.991a140.328 140.328 0 0 0-3.026 3.097c-.076.079-.151.154-.227.234a149.055 149.055 0 0 0-3.26 3.574c-.17.195-.336.393-.506.588-.866.991-1.72 1.993-2.559 3.007-.271.328-.538.661-.808.992a141.102 141.102 0 0 0-3.824 4.933c-.469.632-.944 1.262-1.403 1.901-.702.976-1.382 1.968-2.06 2.961-.356.52-.721 1.032-1.07 1.558a144.54 144.54 0 0 0-2.928 4.596c-.228.375-.443.76-.668 1.136a144.662 144.662 0 0 0-2.146 3.693c-.306.544-.596 1.097-.894 1.645a153.867 153.867 0 0 0-1.762 3.339 146.74 146.74 0 0 0-2.429 5.021c-.321.697-.641 1.396-.952 2.099a157.93 157.93 0 0 0-1.373 3.22c-.298.722-.598 1.445-.884 2.171a146.674 146.674 0 0 0-1.218 3.219c-.288.786-.583 1.571-.858 2.363-.26.749-.505 1.504-.754 2.26-.321.976-.639 1.953-.941 2.938a135.91 135.91 0 0 0-.689 2.337c-.256.895-.509 1.789-.75 2.69-.208.782-.405 1.569-.602 2.355a141.02 141.02 0 0 0-.675 2.82c-.172.753-.332 1.511-.491 2.268-.208.991-.411 1.983-.599 2.979a143.3 143.3 0 0 0-.39 2.192 131.932 131.932 0 0 0-.504 3.093c-.113.757-.217 1.518-.321 2.278-.127.944-.249 1.887-.357 2.837-.097.843-.18 1.69-.262 2.536-.084.861-.165 1.721-.232 2.586a139.41 139.41 0 0 0-.201 3.046c-.046.796-.097 1.591-.13 2.393-.022.49-.037.98-.054 1.471a144.742 144.742 0 0 0-.083 4.526c0 1.928.05 3.841.125 5.751.012.315.022.63.036.944.084 1.846.202 3.682.357 5.509.025.299.053.596.08.894a145.14 145.14 0 0 0 .62 5.722c.256 1.977.558 3.941.894 5.894.017.091.03.184.046.275.336 1.929.714 3.846 1.125 5.75l.082.375a144.826 144.826 0 0 0 4.947 17.322 146.455 146.455 0 0 0 4.176 10.466c.029.064.055.127.084.19a145.074 145.074 0 0 0 2.224 4.741l.393.79c.761 1.528 1.54 3.043 2.352 4.54l.021.036a143.204 143.204 0 0 0 2.877 5.029c.115.192.227.385.34.576a147.11 147.11 0 0 0 2.992 4.742c.136.205.27.412.407.617a144.625 144.625 0 0 0 3.227 4.663c.098.136.198.27.296.405a146.897 146.897 0 0 0 3.57 4.717h-.001c26.634 33.69 67.847 55.348 114.027 55.348 80.117 0 145.298-65.179 145.298-145.298.006-57.837-33.976-107.89-83.022-131.252zm-20.757 152.017h-83.028c-11.463 0-20.757-9.294-20.757-20.757s9.294-20.757 20.757-20.757h83.028c11.463 0 20.757 9.294 20.757 20.757 0 11.463-9.293 20.757-20.757 20.757z" data-original="#DB072F" data-old_color="#FF3F62" fill="#db072f"/><path d="M241.894 451.53a144.133 144.133 0 0 1-3.227-4.663c-.137-.205-.271-.412-.407-.617a149.54 149.54 0 0 1-2.992-4.742l-.34-.576a141.407 141.407 0 0 1-2.881-5.036l-.017-.03a147.505 147.505 0 0 1-2.352-4.54c-.131-.263-.264-.526-.393-.79a142.2 142.2 0 0 1-2.224-4.741c-.029-.062-.055-.126-.084-.19a144.105 144.105 0 0 1-9.123-27.788l-.082-.375c-.412-1.904-.79-3.821-1.125-5.75-.017-.091-.029-.184-.046-.275a143.008 143.008 0 0 1-.894-5.894l-.006-.043a141.587 141.587 0 0 1-.614-5.679 147.25 147.25 0 0 1-.437-6.404c-.015-.314-.025-.628-.036-.944-.075-1.91-.125-3.825-.125-5.751 0-1.515.033-3.022.083-4.526.015-.49.032-.98.054-1.471.012-.306.018-.612.032-.917H110.703c-11.463 0-20.757-9.294-20.757-20.757s9.294-20.757 20.757-20.757h112.094c.184-.519.393-1.025.583-1.542.396-1.077.797-2.153 1.218-3.219.286-.726.587-1.449.884-2.171.447-1.079.902-2.155 1.373-3.22.313-.703.63-1.402.952-2.099.244-.529.47-1.066.72-1.59.27-.567.562-1.124.84-1.687.286-.583.574-1.165.869-1.744a143.48 143.48 0 0 1 1.762-3.339c.298-.548.588-1.102.894-1.645a141.285 141.285 0 0 1 2.146-3.693c.226-.376.44-.761.668-1.136a147.007 147.007 0 0 1 2.928-4.596c.349-.526.714-1.038 1.07-1.558.678-.994 1.357-1.986 2.06-2.961.459-.639.934-1.269 1.403-1.901.627-.841 1.256-1.68 1.901-2.507.231-.299.45-.607.685-.904h-135.05c-11.463 0-20.757-9.294-20.757-20.757 0-11.463 9.294-20.757 20.757-20.757h187.233c.091-.044.188-.083.281-.127a141.419 141.419 0 0 1 3.805-1.712c.317-.138.63-.282.948-.419a145.07 145.07 0 0 1 4.247-1.726c.199-.079.394-.161.594-.238a144.346 144.346 0 0 1 46.692-9.525 145.914 145.914 0 0 1 26.04 1.394V159.67c-.286 11.214-9.446 20.221-20.729 20.221H221.407c-11.463 0-20.757-9.294-20.757-20.757V20.757a20.753 20.753 0 0 1 12.814-19.175 20.703 20.703 0 0 1 8.29-1.564c-.116-.003-.231-.018-.347-.018H27.676C16.212 0 6.919 9.294 6.919 20.757v415.139c0 11.463 9.294 20.757 20.757 20.757h218.083a149.133 149.133 0 0 1-3.569-4.717l-.296-.406z" data-original="#E0E0E2" fill="#e0e0e2"/><path d="M374.569 144.573c-.036-.037-.068-.08-.105-.118L236.084 6.08l137.754 137.751c.255.233.487.494.731.742z" data-original="#D6D5D8" fill="#d6d5d8"/><path d="M110.703 318.273c-11.463 0-20.757 9.294-20.757 20.757s9.294 20.757 20.757 20.757h103.953c.024-.495.069-.982.097-1.475.058-1.017.119-2.034.201-3.046.068-.865.149-1.726.232-2.586.083-.847.165-1.694.262-2.536.108-.949.23-1.893.357-2.837.061-.452.107-.911.172-1.362.044-.307.102-.609.148-.916.155-1.035.325-2.065.504-3.093.126-.732.255-1.464.39-2.192.188-.998.39-1.99.599-2.979.159-.758.32-1.514.491-2.268.214-.945.443-1.882.675-2.82.195-.786.393-1.573.602-2.355.241-.901.494-1.796.75-2.69.138-.479.26-.965.403-1.442.089-.302.195-.596.286-.895.302-.985.619-1.962.941-2.938.249-.756.494-1.511.754-2.26.095-.273.18-.549.275-.822H110.703v-.002zm0-83.027c-11.463 0-20.757 9.294-20.757 20.757 0 11.463 9.294 20.757 20.757 20.757h135.048c.405-.513.828-1.014 1.238-1.522.27-.331.537-.663.808-.992a137.661 137.661 0 0 1 2.559-3.007c.17-.195.336-.393.506-.588a153.147 153.147 0 0 1 3.259-3.574c.076-.08.151-.155.227-.234.992-1.048 2.002-2.08 3.026-3.097.335-.333.677-.661 1.014-.991.779-.76 1.564-1.512 2.359-2.256a162.086 162.086 0 0 1 3.507-3.164c.435-.379.866-.761 1.305-1.135.804-.688 1.62-1.36 2.44-2.031.397-.324.789-.655 1.189-.974a146.29 146.29 0 0 1 3.573-2.77c.426-.321.862-.625 1.292-.942.811-.595 1.623-1.186 2.447-1.764.584-.41 1.175-.808 1.764-1.209a129.862 129.862 0 0 1 3.992-2.624 152.45 152.45 0 0 1 1.979-1.229c.674-.412 1.349-.825 2.031-1.227.65-.382 1.308-.754 1.965-1.126.699-.397 1.393-.8 2.101-1.186.674-.369 1.36-.721 2.042-1.078a145.638 145.638 0 0 1 4.041-2.047c.508-.248 1.01-.505 1.522-.746l-187.234-.001z" data-original="#57565C" fill="#57565c"/><path d="M200.65 20.757v138.376c0 11.463 9.294 20.757 20.757 20.757h138.407c11.283 0 20.443-9.008 20.729-20.221.004-.18.028-.356.028-.536 0-4.966-1.763-9.507-4.672-13.08l-.1-.125c-.386-.469-.8-.92-1.23-1.356-.244-.248-.476-.508-.731-.742L236.083 6.079a20.702 20.702 0 0 0-1.384-1.252c-.133-.111-.268-.214-.403-.322-.368-.292-.743-.57-1.128-.836-.14-.095-.277-.194-.419-.285-.5-.327-1.009-.637-1.535-.919-.014-.007-.028-.017-.04-.024a20.938 20.938 0 0 0-1.667-.789c-.152-.065-.31-.123-.465-.184a21.118 21.118 0 0 0-1.286-.461c-.176-.055-.35-.113-.527-.166a20.334 20.334 0 0 0-1.643-.412c-.044-.01-.087-.024-.131-.032a19.968 19.968 0 0 0-1.784-.266c-.187-.021-.374-.033-.562-.05-.45-.036-.902-.06-1.356-.066a20.676 20.676 0 0 0-8.29 1.564 20.76 20.76 0 0 0-12.813 19.178z" data-original="#C6C5CA" fill="#c6c5ca"/><path d="M401.299 345.945h-83.028c-11.463 0-20.757 9.294-20.757 20.757s9.294 20.757 20.757 20.757h83.028c11.463 0 20.757-9.294 20.757-20.757s-9.293-20.757-20.757-20.757z" data-original="#FFFFFF" data-old_color="#ffffff" fill="#fff"/><path d="M318.272 387.459c-11.463 0-20.757-9.294-20.757-20.757s9.294-20.757 20.757-20.757h41.514V221.404c-1.769 0-3.531.033-5.283.095-5.232.192-10.394.664-15.474 1.393a144.053 144.053 0 0 0-31.22 8.131c-.199.077-.394.159-.594.238a137.644 137.644 0 0 0-4.247 1.726c-.318.137-.631.281-.948.419a143.169 143.169 0 0 0-3.805 1.712c-.606.284-1.203.581-1.803.873a145.674 145.674 0 0 0-4.041 2.047c-.681.358-1.367.71-2.042 1.078-.707.386-1.402.789-2.101 1.186-.657.374-1.315.744-1.965 1.126-.682.401-1.356.815-2.031 1.227a142.265 142.265 0 0 0-3.909 2.472c-.693.454-1.378.916-2.062 1.381-.591.401-1.182.8-1.764 1.209-.823.578-1.636 1.171-2.447 1.764-.43.315-.866.621-1.292.942a147.415 147.415 0 0 0-3.573 2.77c-.4.321-.792.652-1.189.974-.819.67-1.636 1.344-2.44 2.031-.439.374-.872.756-1.305 1.135a145.084 145.084 0 0 0-3.507 3.164c-.796.743-1.582 1.496-2.359 2.256-.338.329-.679.657-1.014.991a140.328 140.328 0 0 0-3.026 3.097c-.076.079-.151.154-.227.234a146.94 146.94 0 0 0-3.259 3.574c-.17.195-.336.393-.506.588-.866.991-1.72 1.993-2.559 3.007-.271.328-.538.661-.808.992a141.102 141.102 0 0 0-3.824 4.933c-.469.632-.944 1.262-1.403 1.901-.702.976-1.382 1.968-2.06 2.961-.356.52-.721 1.032-1.07 1.558a144.54 144.54 0 0 0-2.928 4.596c-.228.375-.443.76-.668 1.136a141.285 141.285 0 0 0-2.146 3.693c-.306.544-.596 1.097-.894 1.645a123.048 123.048 0 0 0-2.631 5.083 146.74 146.74 0 0 0-1.56 3.277c-.321.697-.641 1.396-.952 2.099a155.57 155.57 0 0 0-1.373 3.22c-.298.722-.598 1.445-.884 2.171a144.771 144.771 0 0 0-1.218 3.219c-.288.786-.583 1.571-.858 2.364-.26.749-.505 1.504-.754 2.26-.321.976-.639 1.953-.941 2.938a135.91 135.91 0 0 0-.689 2.337c-.257.894-.509 1.789-.75 2.69-.208.782-.405 1.569-.602 2.355a141.02 141.02 0 0 0-.675 2.82c-.172.753-.332 1.511-.491 2.268-.208.991-.411 1.983-.599 2.979a143.3 143.3 0 0 0-.39 2.192 137.396 137.396 0 0 0-.504 3.093 170.92 170.92 0 0 0-.32 2.278 139.94 139.94 0 0 0-.357 2.837c-.097.843-.18 1.69-.262 2.536-.084.861-.165 1.721-.232 2.586-.08 1.012-.141 2.029-.201 3.046-.046.796-.097 1.591-.13 2.393-.022.49-.037.98-.054 1.471a144.742 144.742 0 0 0-.083 4.526c0 1.928.05 3.841.125 5.751.012.316.022.63.036.944.084 1.846.202 3.682.357 5.51.025.299.053.596.08.894a144.932 144.932 0 0 0 .62 5.722 145 145 0 0 0 .894 5.894c.017.091.029.184.046.275.336 1.93.714 3.846 1.125 5.75l.082.375a144.826 144.826 0 0 0 4.947 17.322 146.455 146.455 0 0 0 4.176 10.466c.029.064.055.127.084.19a145.074 145.074 0 0 0 2.224 4.741c.13.264.262.527.393.79.761 1.526 1.54 3.043 2.352 4.54l.021.036a143.204 143.204 0 0 0 2.877 5.029c.115.192.227.385.34.576a147.11 147.11 0 0 0 2.992 4.742c.136.205.27.412.407.617a144.625 144.625 0 0 0 3.227 4.663c.098.136.198.27.296.405a146.897 146.897 0 0 0 3.57 4.717h-.001c26.634 33.69 67.847 55.348 114.027 55.348V387.455h-41.507v.004z" data-original="#DB072F" data-old_color="#DA072F" fill="#db072f"/><path d="M227.805 306.021c.506-1.1 1.027-2.192 1.56-3.277-.277.563-.569 1.119-.84 1.687-.249.525-.476 1.063-.72 1.59zm79.412-74.759zm-62.15 46.401zm56.955-44.256zm37.007-10.514c5.08-.729 10.24-1.201 15.474-1.393a144.314 144.314 0 0 0-46.692 9.525 143.935 143.935 0 0 1 31.218-8.132zM242.19 451.935a146.868 146.868 0 0 0 3.569 4.717h.001a144.006 144.006 0 0 1-3.57-4.717zm-27.702-85.233zm12.571 59.092zm4.99 10.109zm-17.401-62.506zm17.347-75.735zm-7.397 15.851zm10.438-21.19zm-20.411 68.382zm15.052 70.62zm-2.822-123.204zm11.777-21.531zm-21.986 105.103zm22.021 55.173zm3.095-164.794zm-26.057 103.452zm19.563 55.983zM222.8 415.139a144.587 144.587 0 0 1 4.176 10.466 146.643 146.643 0 0 1-4.176-10.466zm-7.715-35.338zm4.303-50.481zm-1.278 5.177zm-2.662 15.646zm7.074-31.048c-.26.749-.505 1.504-.754 2.26.247-.755.494-1.511.754-2.26zm-7.568 36.171c-.082 1.012-.141 2.029-.201 3.046.058-1.017.121-2.033.201-3.046zm.851-7.959c.102-.761.208-1.522.32-2.278-.046.307-.104.609-.148.916-.065.451-.111.909-.172 1.362zm1.215-7.563zm3.118-13.114c.224-.78.451-1.562.689-2.337-.091.3-.198.595-.286.895-.143.478-.265.963-.403 1.442zm34.211-59.787c-.076.079-.151.154-.227.234.075-.08.151-.155.227-.234zm11.212-10.641c-.439.374-.872.756-1.305 1.135.433-.381.866-.761 1.305-1.135zm-3.58 3.163zm-14.184 14.88c-.271.328-.538.661-.808.992.271-.33.537-.662.808-.992zm3.065-3.593c-.17.195-.336.393-.506.588.17-.195.336-.395.506-.588zm35.404-29.222c-.682.403-1.356.815-2.031 1.227.675-.412 1.349-.826 2.031-1.227zm10.148-5.438zm-6.082 3.124c-.707.386-1.402.789-2.101 1.186.699-.397 1.394-.8 2.101-1.186zm-8.075 4.769zm-3.992 2.625c-.591.401-1.182.8-1.764 1.209.582-.409 1.173-.808 1.764-1.209zm-4.211 2.974c-.43.317-.866.621-1.292.942.426-.321.862-.627 1.292-.942zm-16.68 14.262c.335-.333.677-.661 1.014-.991-.337.33-.679.657-1.014.991zm11.815-10.55c-.4.321-.792.65-1.189.974.397-.323.789-.654 1.189-.974z" data-original="#B4002B" class="active-path" fill="#b4002b"/></svg>