<svg xmlns="http://www.w3.org/2000/svg" viewBox="0 0 512.006 512.006" width="512" height="512"><path d="M416.92 219.642a152.25 152.25 0 0 0-32.768-11.246 153.068 153.068 0 0 0-11.118-2.02 154.496 154.496 0 0 0-21.943-1.574c-1.706 0-3.403.037-5.095.094-.37.012-.74.023-1.109.037-1.656.067-3.305.154-4.946.274-.247.019-.494.041-.742.06-1.497.116-2.989.253-4.473.411-.304.032-.609.061-.913.095-1.618.181-3.23.391-4.833.623-.335.048-.667.099-1.001.152-1.527.231-3.049.48-4.56.758-.138.026-.275.045-.411.072a157.183 157.183 0 0 0-5.828 1.207c-1.589.358-3.171.737-4.74 1.144-.124.032-.246.069-.37.101a149.24 149.24 0 0 0-4.44 1.245c-.3.089-.6.174-.898.265-1.535.464-3.06.949-4.576 1.461a68.5 68.5 0 0 0-.762.263c-1.409.483-2.809.986-4.2 1.508-.192.072-.385.14-.575.212a152.13 152.13 0 0 0-4.466 1.786c-.291.121-.582.246-.873.369a153.762 153.762 0 0 0-8.843 4.09l-.824.414a155.534 155.534 0 0 0-4.242 2.241l-.475.266c-1.311.727-2.61 1.475-3.897 2.237l-.628.37a153.15 153.15 0 0 0-4.055 2.519c-.231.149-.462.301-.695.452a158.917 158.917 0 0 0-3.869 2.592l-.199.136a155.421 155.421 0 0 0-4.642 3.369 154.249 154.249 0 0 0-3.808 2.952c-.066.053-.13.107-.196.159-1.2.965-2.382 1.954-3.552 2.956-.215.184-.433.367-.647.553a164.761 164.761 0 0 0-3.533 3.151c-.183.168-.366.342-.549.513a160.203 160.203 0 0 0-3.182 3.041c-.145.14-.29.278-.433.42a154.11 154.11 0 0 0-3.294 3.373l-.667.709a156.018 156.018 0 0 0-6.308 7.159c-.219.268-.44.532-.66.802a154.16 154.16 0 0 0-2.888 3.64c-.152.2-.301.402-.455.603a157.023 157.023 0 0 0-2.474 3.35c-.187.262-.379.521-.565.784-.881 1.243-1.742 2.5-2.588 3.768-.205.309-.405.62-.609.93a150.718 150.718 0 0 0-2.234 3.509c-.118.192-.24.38-.355.572a156.542 156.542 0 0 0-2.313 3.926c-.212.372-.421.745-.632 1.118a155.38 155.38 0 0 0-2.159 3.979c-.129.246-.25.494-.376.74-.6 1.164-1.185 2.341-1.754 3.521-.189.391-.379.78-.563 1.172a144.86 144.86 0 0 0-2.462 5.501 151.508 151.508 0 0 0-1.905 4.677c-.069.176-.132.354-.2.531a152.448 152.448 0 0 0-1.719 4.737c-.07.2-.142.399-.211.6a154.233 154.233 0 0 0-1.593 4.98c-.092.309-.186.616-.276.925a150.074 150.074 0 0 0-1.318 4.729c-.057.219-.11.44-.165.66-.377 1.472-.73 2.951-1.064 4.437-.061.272-.126.543-.186.815a153.261 153.261 0 0 0-1.146 5.821c-.295 1.669-.576 3.34-.818 5.026a154.213 154.213 0 0 0-1.574 21.943c0 1.688.035 3.372.092 5.045.013.386.029.768.044 1.153.063 1.565.145 3.128.255 4.68l.018.268c.265 3.634.655 7.234 1.167 10.797 10.68 74.337 74.78 131.657 152.026 131.657 84.695 0 153.6-68.905 153.6-153.6.01-61.157-35.914-114.07-87.762-138.765zm-21.943 160.701h-87.772c-12.118 0-21.943-9.825-21.943-21.943 0-12.118 9.825-21.943 21.943-21.943h87.772c12.118 0 21.943 9.825 21.943 21.943 0 12.118-9.824 21.943-21.943 21.943z" data-original="#DB072F" data-old_color="#FF3F62" fill="#db072f"/><path d="M394.977 336.457h-87.772c-12.118 0-21.943 9.825-21.943 21.943 0 12.118 9.825 21.943 21.943 21.943h87.772c12.118 0 21.943-9.825 21.943-21.943 0-12.118-9.824-21.943-21.943-21.943z" data-original="#FFFFFF" data-old_color="#ffffff" fill="#fff"/><path d="M307.206 380.343c-12.118 0-21.943-9.825-21.943-21.943 0-12.118 9.825-21.943 21.943-21.943h43.886V204.8c-1.706 0-3.403.037-5.095.094-.37.012-.74.023-1.109.037-1.656.067-3.305.154-4.946.274-.247.019-.494.041-.742.06-1.497.116-2.989.253-4.473.411-.304.032-.609.061-.913.095-1.619.181-3.23.391-4.833.623-.335.048-.667.099-1.001.152-1.527.231-3.049.48-4.56.758-.138.026-.275.045-.411.072a157.183 157.183 0 0 0-5.828 1.207c-1.589.358-3.171.737-4.74 1.144-.124.032-.246.069-.37.101a149.24 149.24 0 0 0-4.44 1.245c-.3.089-.6.174-.898.265-1.535.464-3.06.949-4.576 1.461-.255.086-.508.174-.761.263-1.409.483-2.809.986-4.2 1.508-.192.072-.385.14-.575.212a152.13 152.13 0 0 0-4.466 1.786c-.291.121-.582.246-.873.369a153.762 153.762 0 0 0-8.843 4.09l-.824.414a155.534 155.534 0 0 0-4.242 2.241l-.475.266c-1.311.727-2.61 1.475-3.897 2.237l-.628.37a153.15 153.15 0 0 0-4.055 2.519c-.231.149-.462.301-.695.452a158.917 158.917 0 0 0-3.869 2.592l-.199.136a155.421 155.421 0 0 0-4.642 3.369 154.249 154.249 0 0 0-3.808 2.952c-.066.053-.13.107-.196.159-1.2.965-2.382 1.954-3.552 2.956-.215.184-.433.367-.647.553a164.761 164.761 0 0 0-3.533 3.151c-.183.168-.366.342-.549.513a160.203 160.203 0 0 0-3.182 3.041c-.145.14-.29.278-.433.42a154.11 154.11 0 0 0-3.294 3.373l-.667.709a156.525 156.525 0 0 0-6.308 7.158c-.219.268-.44.532-.66.802a154.16 154.16 0 0 0-2.888 3.64c-.154.2-.301.402-.455.603a157.023 157.023 0 0 0-2.474 3.35c-.187.262-.379.521-.565.784-.879 1.243-1.742 2.5-2.586 3.768-.205.309-.405.62-.609.93a146.725 146.725 0 0 0-2.234 3.511c-.118.192-.24.38-.355.572a153.55 153.55 0 0 0-2.313 3.926c-.212.372-.421.745-.632 1.118-.736 1.317-1.46 2.64-2.159 3.979-.129.246-.25.494-.376.74-.6 1.164-1.183 2.341-1.754 3.521-.189.391-.379.78-.563 1.172a145.92 145.92 0 0 0-2.462 5.5 151.508 151.508 0 0 0-1.905 4.677c-.069.176-.132.354-.2.531a152.448 152.448 0 0 0-1.719 4.737c-.07.2-.142.399-.211.6a154.233 154.233 0 0 0-1.593 4.98c-.092.309-.186.616-.276.925a151.595 151.595 0 0 0-1.318 4.729c-.057.219-.11.44-.165.66-.377 1.472-.73 2.951-1.064 4.437-.061.272-.126.543-.186.815a153.261 153.261 0 0 0-1.146 5.821c-.295 1.669-.576 3.34-.818 5.026a154.213 154.213 0 0 0-1.574 21.943c0 1.688.035 3.372.092 5.045.013.386.029.768.044 1.153.063 1.565.145 3.128.255 4.68l.018.268c.265 3.634.655 7.234 1.167 10.797 10.68 74.337 74.78 131.657 152.026 131.657V380.347h-43.883v-.004z" data-original="#DB072F" data-old_color="#FF0C38" fill="#db072f"/><path d="M323.422 207.303c-.138.026-.275.045-.411.072.137-.027.273-.046.411-.072zm16.52-2.099c-.247.019-.494.041-.742.06.247-.018.495-.041.742-.06zM202.445 319.7c-.057.219-.11.44-.165.66.055-.22.108-.44.165-.66zm-1.229 5.097c-.061.272-.126.541-.186.815.06-.273.125-.543.186-.815zm4.627-16.332c-.07.2-.142.399-.211.6l.211-.6zm106.598-98.74c-.124.032-.246.069-.37.101.125-.032.246-.067.37-.101zm-10.283 3.072c-.255.086-.508.174-.761.263.253-.088.506-.178.761-.263zm-29.157 13.386l-.628.37c.21-.125.421-.248.628-.37zm-65.24 77.015c-.069.176-.132.354-.2.531.07-.177.133-.356.2-.531zm47.348-64.626c-.066.053-.13.107-.196.159.066-.053.13-.107.196-.159zm42.087-24.003c-.192.072-.385.14-.575.212.191-.073.383-.14.575-.212zm-45.835 27.118c-.215.184-.433.367-.647.553.214-.185.432-.368.647-.553zM197.492 358.4zm94.664-141.834c-.291.121-.582.246-.873.369.291-.123.582-.248.873-.369zm-88.393 98.403l.276-.925c-.047.157-.102.312-.151.468-.043.154-.081.308-.125.457zm125.219-108.574zm-51.608 17.285l-.475.266c.16-.088.317-.177.475-.266zm40.838-15.328c-.345.076-.689.152-1.031.23.344-.079.686-.154 1.031-.23zm27.784-3.458c-.37.012-.74.023-1.109.037.369-.014.739-.026 1.109-.037zM200.062 330.44c-.061.331-.12.661-.178.992.058-.33.116-.662.178-.992zm82.378-109.415l-.824.414c.275-.139.55-.275.824-.414zm-18.684 11.091l-.199.136c.066-.047.133-.091.199-.136zm43.876-21.045c-.3.089-.6.174-.898.265.298-.091.598-.175.898-.265zm-81.357 57.931c-.187.262-.379.521-.565.784.186-.263.378-.524.565-.784zm-3.153 4.552c-.205.309-.405.62-.609.93.204-.309.406-.621.609-.93zm19.897-24.188c.143-.142.288-.279.433-.42-.145.139-.29.278-.433.42zm25.3-20.294c-.231.149-.462.301-.695.452.233-.151.464-.305.695-.452zm-39.116 35.977c-.154.2-.301.402-.455.603.154-.2.302-.404.455-.603zm3.546-4.442c-.219.268-.44.532-.66.802.222-.268.441-.535.66-.802zm26.894-25.532l-.727.544.727-.544zm-61.745 134.471zm41.826-116.808c-.222.236-.446.472-.667.709l.667-.709zm7.458-7.347l-.549.513c.183-.17.366-.344.549-.513zm-35.053 47.63c.184-.392.374-.781.563-1.172-.117.243-.244.48-.36.723-.07.149-.133.299-.203.449zm5.483-10.53c-.212.372-.421.745-.632 1.118.21-.374.42-.747.632-1.118zm117.116-76.815c-.304.032-.609.061-.913.095.305-.033.607-.063.913-.095zM210.132 297.43c-.157.361-.312.727-.465 1.09.154-.363.307-.729.465-1.09zm10.148-19.436c-.118.192-.24.38-.355.572.115-.192.237-.38.355-.572zm-22.652 86.604zm17.194-77.011c-.129.246-.249.494-.376.74.126-.245.247-.494.376-.74z" data-original="#B4002B" fill="#b4002b"/><path d="M394.977 0H219.434c-12.118 0-21.943 9.825-21.943 21.943v21.943H29.263c-12.118 0-21.943 9.825-21.943 21.943V358.4c0 12.118 9.825 21.943 21.943 21.943h168.229V358.4c0-7.45.544-14.775 1.574-21.943.241-1.685.521-3.357.818-5.026.059-.331.117-.661.178-.992.298-1.618.62-3.229.968-4.829.06-.274.124-.543.186-.815.334-1.488.686-2.965 1.064-4.437.056-.219.108-.44.165-.66.413-1.587.856-3.163 1.318-4.729.044-.151.082-.304.127-.456.047-.157.102-.312.151-.468a153.442 153.442 0 0 1 1.593-4.98c.069-.2.14-.399.211-.6a154.11 154.11 0 0 1 1.719-4.737c.069-.177.132-.355.2-.531a155.597 155.597 0 0 1 1.905-4.677c.154-.363.309-.729.465-1.09a153.768 153.768 0 0 1 1.997-4.41c.07-.149.133-.3.203-.449.116-.243.243-.48.36-.723a151.785 151.785 0 0 1 1.754-3.521c.127-.246.247-.494.376-.74a158.825 158.825 0 0 1 2.159-3.979c.211-.373.42-.746.632-1.118a149.519 149.519 0 0 1 2.313-3.926c.116-.192.237-.38.355-.572a151.017 151.017 0 0 1 2.234-3.509c.203-.31.404-.622.609-.93a154.04 154.04 0 0 1 2.588-3.768c.186-.263.377-.522.565-.784.81-1.128 1.634-2.244 2.474-3.35.152-.2.301-.402.455-.603a158.942 158.942 0 0 1 2.888-3.64c.219-.269.44-.534.66-.802a154.824 154.824 0 0 1 6.308-7.159c.221-.237.445-.474.667-.709a158.78 158.78 0 0 1 3.294-3.373c.143-.142.288-.279.433-.42a157.504 157.504 0 0 1 3.182-3.041l.549-.513a164.761 164.761 0 0 1 3.533-3.151c.214-.186.432-.369.647-.553a152.327 152.327 0 0 1 3.552-2.956c.066-.053.13-.107.196-.159a155.349 155.349 0 0 1 4.535-3.496c1.29-.958 2.592-1.905 3.915-2.825l.199-.136a154.215 154.215 0 0 1 3.869-2.592c.231-.151.462-.303.695-.452 1.339-.86 2.69-1.7 4.055-2.519l.628-.37c1.287-.762 2.586-1.51 3.897-2.237l.475-.266c1.4-.768 2.816-1.514 4.242-2.241l.824-.414a152.468 152.468 0 0 1 8.843-4.09c.29-.123.581-.247.873-.369a151.024 151.024 0 0 1 4.466-1.786c.19-.072.383-.14.575-.212a148.607 148.607 0 0 1 4.2-1.508c.255-.089.508-.177.762-.263 1.516-.512 3.041-.998 4.576-1.461.298-.091.598-.176.898-.265 1.472-.436 2.951-.853 4.44-1.245.124-.032.246-.069.37-.101a150.8 150.8 0 0 1 4.74-1.144c.342-.079.686-.154 1.031-.23 1.59-.348 3.189-.677 4.797-.977.138-.026.275-.045.411-.072 1.511-.276 3.033-.525 4.56-.758l1.001-.152c1.603-.233 3.214-.442 4.833-.623.304-.034.609-.063.913-.095a152.83 152.83 0 0 1 4.473-.411c.247-.019.494-.041.742-.06 1.641-.118 3.29-.208 4.946-.274.369-.015.739-.026 1.109-.037 1.693-.057 3.389-.094 5.095-.094a154.213 154.213 0 0 1 33.061 3.594 152.368 152.368 0 0 1 32.768 11.246V21.943C416.92 9.825 407.096 0 394.977 0z" data-original="#F2D23D" fill="#f2d23d"/><path d="M199.066 380.343a152.32 152.32 0 0 1-1.167-10.797l-.018-.268a160.637 160.637 0 0 1-.299-5.833 156.518 156.518 0 0 1-.091-5.045v21.943h1.575z" data-original="#E69629" fill="#e69629"/><path d="M29.263 43.886c-12.118 0-21.943 9.825-21.943 21.943V358.4c0 12.118 9.825 21.943 21.943 21.943h168.229V43.886H29.263z" data-original="#EEBF00" class="active-path" fill="#eebf00"/></svg>