<svg id="Layer_1" xmlns="http://www.w3.org/2000/svg" viewBox="0 0 37.6 48"><style>.st0{fill:#0c8140}</style><path class="st0" d="M28.8 17.6h-20c-.4 0-.8.4-.8.8s.4.8.8.8h20c.4 0 .8-.4.8-.8s-.4-.8-.8-.8zm-20-4.8h8c.4 0 .8-.4.8-.8s-.4-.8-.8-.8h-8c-.4 0-.8.4-.8.8s.4.8.8.8zm20 11.2h-20c-.4 0-.8.4-.8.8s.4.8.8.8h20c.4 0 .8-.4.8-.8s-.4-.8-.8-.8zm0 6.4h-20c-.4 0-.8.4-.8.8s.4.8.8.8h20c.4 0 .8-.4.8-.8s-.4-.8-.8-.8zm0 6.4h-20c-.4 0-.8.4-.8.8s.4.8.8.8h20c.4 0 .8-.4.8-.8s-.4-.8-.8-.8zm0 0"/><path class="st0" d="M25.9 0H0v48h37.6V11.7L25.9 0zm.5 2.7l8.5 8.5h-8.5V2.7zM1.6 46.4V1.6h23.2v11.2H36v33.6H1.6zm0 0"/></svg>