<svg xmlns="http://www.w3.org/2000/svg" viewBox="0 0 48 39.2"><g data-name="Layer 2"><path d="M46 12.8h-2.8v-5A2.19 2.19 0 0 0 41 5.6H21.21l-4-5.6h-15A2.19 2.19 0 0 0 0 2.19v35a2.08 2.08 0 0 0 .42 1.21 2 2 0 0 0 1.63.8h35.81a2 2 0 0 0 2-1.45L48 15.32v-.14a2.14 2.14 0 0 0-2-2.38zM1.6 2.19a.58.58 0 0 1 .59-.59h14.2l4 5.6H41a.59.59 0 0 1 .59.59v5H9.84a2 2 0 0 0-1.61 1.42L1.6 32.32zm36.7 35.08a.46.46 0 0 1-.44.33H2.05a.47.47 0 0 1-.36-.17.5.5 0 0 1-.1-.33l8.16-22.36a.45.45 0 0 1 .43-.34H46c.31 0 .38.44.4.66z" fill="#0c8140" data-name="Layer 1"/></g></svg>