<svg xmlns="http://www.w3.org/2000/svg" viewBox="0 0 512 512"><path d="M228.326 428.512c0-4.917 1.755-9.645 4.899-13.373.378-.447.764-.888 1.182-1.304l104.62-104.622 20.757-20.757 20.757-20.757V159.67c-.286 11.214-9.446 20.221-20.729 20.221H221.405c-11.463 0-20.757-9.294-20.757-20.757V20.757a20.753 20.753 0 0 1 12.814-19.175 20.708 20.708 0 0 1 8.289-1.564c-.117-.003-.23-.018-.346-.018H27.674C16.21 0 6.917 9.294 6.917 20.757v415.139c0 11.463 9.294 20.757 20.757 20.757h200.653v-28.141zM110.701 235.246h166.055c11.463 0 20.757 9.294 20.757 20.757 0 11.463-9.294 20.757-20.757 20.757H110.701c-11.463 0-20.757-9.294-20.757-20.757 0-11.464 9.294-20.757 20.757-20.757zm0 124.541c-11.463 0-20.757-9.294-20.757-20.757s9.294-20.757 20.757-20.757h166.055c11.463 0 20.757 9.294 20.757 20.757s-9.294 20.757-20.757 20.757H110.701z" fill="#e0e0e2"/><path d="M374.567 144.573c-.036-.037-.069-.08-.105-.118L236.082 6.08l137.754 137.751c.256.233.486.494.731.742z" fill="#d6d5d8"/><path d="M297.513 339.03c0-11.463-9.294-20.757-20.757-20.757H110.701c-11.463 0-20.757 9.294-20.757 20.757s9.294 20.757 20.757 20.757h166.055c11.464 0 20.757-9.293 20.757-20.757zm-186.812-62.27h166.055c11.463 0 20.757-9.294 20.757-20.757 0-11.463-9.294-20.757-20.757-20.757H110.701c-11.463 0-20.757 9.294-20.757 20.757 0 11.463 9.294 20.757 20.757 20.757z" fill="#57565c"/><path d="M200.648 20.757v138.376c0 11.463 9.294 20.757 20.757 20.757h138.407c11.283 0 20.443-9.008 20.729-20.221.006-.18.028-.356.028-.536 0-4.966-1.762-9.507-4.67-13.08-.035-.04-.068-.083-.101-.125a20.14 20.14 0 0 0-1.23-1.356c-.245-.248-.475-.508-.731-.742L236.081 6.079a20.989 20.989 0 0 0-1.385-1.255c-.13-.108-.264-.209-.397-.314-.371-.295-.75-.577-1.139-.844-.136-.091-.268-.188-.407-.277a20.74 20.74 0 0 0-1.576-.944 21.076 21.076 0 0 0-1.679-.793c-.148-.062-.298-.118-.447-.177-.432-.17-.866-.327-1.306-.468-.17-.055-.339-.111-.511-.161a20.671 20.671 0 0 0-1.673-.422c-.035-.007-.068-.018-.102-.025a20.298 20.298 0 0 0-1.789-.266c-.185-.021-.371-.033-.556-.048a20.49 20.49 0 0 0-1.362-.068 20.684 20.684 0 0 0-8.289 1.564 20.754 20.754 0 0 0-12.815 19.176z" fill="#c6c5ca"/><path d="M499.004 304.054l-29.779-29.778-32.954-32.954c-8.105-8.106-21.248-8.106-29.354 0L380.539 267.7l-20.757 20.757-20.757 20.757-104.62 104.622c-.418.417-.804.857-1.182 1.304a20.746 20.746 0 0 0-4.899 13.373v62.732c0 6.541 3.032 12.367 7.76 16.171a20.662 20.662 0 0 0 12.997 4.586h62.73a20.756 20.756 0 0 0 14.676-6.079L499.001 333.41c3.893-3.893 6.08-9.172 6.08-14.678s-2.183-10.786-6.077-14.678z" fill="#f4d944"/><path d="M436.271 241.322c-8.105-8.106-21.248-8.106-29.354 0L380.539 267.7l-20.757 20.757-20.757 20.757-104.62 104.622c-.418.417-.804.857-1.182 1.304a20.746 20.746 0 0 0-4.899 13.373v62.732c0 6.541 3.032 12.367 7.76 16.171l233.14-233.14-32.953-32.954z" fill="#f1cc30"/></svg>