<svg xmlns="http://www.w3.org/2000/svg" viewBox="0 0 21.6 21.6"><path d="M18.6 8.4l-.5-1.3s1.3-2.9 1.2-3l-1.7-1.6c-.1-.1-3 1.2-3 1.2l-1.3-.5S12.1.3 12 .3H9.6c-.2 0-1.2 2.9-1.2 2.9L7 3.7S4.1 2.5 4 2.6L2.3 4.2c-.1.1 1.2 2.9 1.2 2.9L3 8.4S0 9.5 0 9.7V12c0 .2 3 1.2 3 1.2l.5 1.3s-1.3 2.9-1.2 3L4 19.1c.1.1 3-1.2 3-1.2l1.3.5s1.2 2.9 1.3 2.9H12c.2 0 1.2-2.9 1.2-2.9l1.3-.5s2.9 1.2 3 1.1l1.7-1.6c.1-.1-1.2-2.9-1.2-2.9l.5-1.3s3-1.1 3-1.3V9.6c.1-.2-2.9-1.2-2.9-1.2zm-4.3 2.4c0 1.9-1.6 3.4-3.5 3.4s-3.5-1.5-3.5-3.4 1.6-3.4 3.5-3.4 3.5 1.5 3.5 3.4z" fill="none" stroke="#fff" stroke-width=".5" stroke-miterlimit="10"/></svg>