<?xml version="1.0" encoding="utf-8"?>
<!-- Generator: Adobe Illustrator 22.1.0, SVG Export Plug-In . SVG Version: 6.00 Build 0)  -->
<svg version="1.1" id="Capa_1" xmlns="http://www.w3.org/2000/svg" xmlns:xlink="http://www.w3.org/1999/xlink" x="0px" y="0px"
	 viewBox="0 0 635 635" style="enable-background:new 0 0 635 635;" xml:space="preserve">
<style type="text/css">
	.st0{fill:#FFFFFF;}
</style>
<g>
	<g id="_x31_">
		<g>
			<path class="st0" d="M283.1,159.1V25.4c0.8-6.7-1.1-13.6-6.2-18.7c-9-8.9-23.5-8.9-32.5,0L18,254.9c-4.8,4.8-6.8,11.1-6.5,17.3
				c-0.3,6.2,1.7,12.5,6.5,17.3l225.1,246.8c4.2,5.1,10.2,8.5,17.3,8.5c6.4,0,12.1-2.7,16.3-7c0.1,0,0.1-0.1,0.2-0.1
				c5.2-5.1,7-12.1,6.2-18.7c0,0,0.4-125.7,0.4-133.4c149.6,0,284.9,107.7,311.7,249.4c18.1-41.6,28.2-87.3,28.2-135.6
				C623.5,311.5,471.1,159.1,283.1,159.1z M306.2,340.2c-14.8,0-68.4,0.4-68.4,0.4v121.9L64.2,272.2L237.8,81.9v122.6
				c0,0,56.6-0.6,68.4-0.2c160,5,271.2,187.2,271.9,272.5C529.2,413.9,400.7,340.2,306.2,340.2z"/>
		</g>
	</g>
</g>
</svg>
