<?xml version="1.0"?>
<svg xmlns="http://www.w3.org/2000/svg" xmlns:xlink="http://www.w3.org/1999/xlink" version="1.1" id="Layer_1" x="0px" y="0px" viewBox="0 0 512.006 512.006" style="enable-background:new 0 0 512.006 512.006;" xml:space="preserve" width="512px" height="512px" class=""><g><g><path style="fill:#DB072F" d="M416.92,219.642c-7.038-3.353-14.368-6.181-21.943-8.442c-3.556-1.064-7.167-1.998-10.825-2.804  c-3.659-0.806-7.367-1.48-11.118-2.02c-7.169-1.028-14.493-1.574-21.943-1.574c-1.706,0-3.403,0.037-5.095,0.094  c-0.37,0.012-0.74,0.023-1.109,0.037c-1.656,0.067-3.305,0.154-4.946,0.274c-0.247,0.019-0.494,0.041-0.742,0.06  c-1.497,0.116-2.989,0.253-4.473,0.411c-0.304,0.032-0.609,0.061-0.913,0.095c-1.618,0.181-3.23,0.391-4.833,0.623  c-0.335,0.048-0.667,0.099-1.001,0.152c-1.527,0.231-3.049,0.48-4.56,0.758c-0.138,0.026-0.275,0.045-0.411,0.072  c-1.609,0.3-3.207,0.629-4.797,0.977c-0.345,0.076-0.689,0.152-1.031,0.23c-1.589,0.358-3.171,0.737-4.74,1.144  c-0.124,0.032-0.246,0.069-0.37,0.101c-1.491,0.392-2.968,0.809-4.44,1.245c-0.3,0.089-0.6,0.174-0.898,0.265  c-1.535,0.464-3.06,0.949-4.576,1.461c-0.255,0.086-0.508,0.174-0.762,0.263c-1.409,0.483-2.809,0.986-4.2,1.508  c-0.192,0.072-0.385,0.14-0.575,0.212c-1.501,0.572-2.989,1.169-4.466,1.786c-0.291,0.121-0.582,0.246-0.873,0.369  c-2.997,1.271-5.945,2.638-8.843,4.09c-0.275,0.139-0.549,0.275-0.824,0.414c-1.428,0.727-2.842,1.473-4.242,2.241  c-0.158,0.089-0.316,0.178-0.475,0.266c-1.311,0.727-2.61,1.475-3.897,2.237c-0.209,0.123-0.418,0.246-0.628,0.37  c-1.366,0.819-2.717,1.659-4.055,2.519c-0.231,0.149-0.462,0.301-0.695,0.452c-1.303,0.847-2.594,1.709-3.869,2.592  c-0.066,0.045-0.133,0.091-0.199,0.136c-1.321,0.92-2.624,1.865-3.915,2.825c-0.243,0.181-0.484,0.361-0.727,0.544  c-1.283,0.965-2.554,1.946-3.808,2.952c-0.066,0.053-0.13,0.107-0.196,0.159c-1.2,0.965-2.382,1.954-3.552,2.956  c-0.215,0.184-0.433,0.367-0.647,0.553c-1.192,1.034-2.371,2.083-3.533,3.151c-0.183,0.168-0.366,0.342-0.549,0.513  c-1.074,0.999-2.136,2.013-3.182,3.041c-0.145,0.14-0.29,0.278-0.433,0.42c-1.116,1.107-2.212,2.232-3.294,3.373  c-0.222,0.236-0.446,0.473-0.667,0.709c-2.174,2.32-4.277,4.707-6.308,7.159c-0.219,0.268-0.44,0.532-0.66,0.802  c-0.98,1.198-1.943,2.411-2.888,3.64c-0.152,0.2-0.301,0.402-0.455,0.603c-0.84,1.106-1.665,2.224-2.474,3.35  c-0.187,0.262-0.379,0.521-0.565,0.784c-0.881,1.243-1.742,2.5-2.588,3.768c-0.205,0.309-0.405,0.62-0.609,0.93  c-0.761,1.159-1.505,2.329-2.234,3.509c-0.118,0.192-0.24,0.38-0.355,0.572c-0.791,1.295-1.558,2.605-2.313,3.926  c-0.212,0.372-0.421,0.745-0.632,1.118c-0.736,1.315-1.46,2.64-2.159,3.979c-0.129,0.246-0.25,0.494-0.376,0.74  c-0.6,1.164-1.185,2.341-1.754,3.521c-0.189,0.391-0.379,0.78-0.563,1.172c-0.689,1.457-1.355,2.927-1.997,4.411  c-0.157,0.361-0.312,0.727-0.465,1.09c-0.657,1.548-1.298,3.103-1.905,4.677c-0.069,0.176-0.132,0.354-0.2,0.531  c-0.597,1.567-1.172,3.145-1.719,4.737c-0.07,0.2-0.142,0.399-0.211,0.6c-0.56,1.649-1.088,3.309-1.593,4.98  c-0.092,0.309-0.186,0.616-0.276,0.925c-0.462,1.567-0.906,3.142-1.318,4.729c-0.057,0.219-0.11,0.44-0.165,0.66  c-0.377,1.472-0.73,2.951-1.064,4.437c-0.061,0.272-0.126,0.543-0.186,0.815c-0.348,1.6-0.67,3.21-0.968,4.829  c-0.061,0.331-0.12,0.661-0.178,0.992c-0.295,1.669-0.576,3.34-0.818,5.026c-1.03,7.169-1.574,14.494-1.574,21.943  c0,1.688,0.035,3.372,0.092,5.045c0.013,0.386,0.029,0.768,0.044,1.153c0.063,1.565,0.145,3.128,0.255,4.68  c0.006,0.089,0.012,0.178,0.018,0.268c0.265,3.634,0.655,7.234,1.167,10.797c10.68,74.337,74.78,131.657,152.026,131.657  c84.695,0,153.6-68.905,153.6-153.6C504.692,297.25,468.768,244.337,416.92,219.642z M394.977,380.343h-43.886h-43.886  c-12.118,0-21.943-9.825-21.943-21.943c0-12.118,9.825-21.943,21.943-21.943h43.886h43.886c12.118,0,21.943,9.825,21.943,21.943  C416.92,370.518,407.096,380.343,394.977,380.343z" data-original="#DB072F" class="" data-old_color="#FF3F62"/><path style="fill:#FFFFFF" d="M394.977,336.457h-43.886h-43.886c-12.118,0-21.943,9.825-21.943,21.943  c0,12.118,9.825,21.943,21.943,21.943h43.886h43.886c12.118,0,21.943-9.825,21.943-21.943  C416.92,346.282,407.096,336.457,394.977,336.457z" data-original="#FFFFFF" class="" data-old_color="#ffffff"/><path style="fill:#DB072F" d="M307.206,380.343c-12.118,0-21.943-9.825-21.943-21.943c0-12.118,9.825-21.943,21.943-21.943h43.886  V204.8c-1.706,0-3.403,0.037-5.095,0.094c-0.37,0.012-0.74,0.023-1.109,0.037c-1.656,0.067-3.305,0.154-4.946,0.274  c-0.247,0.019-0.494,0.041-0.742,0.06c-1.497,0.116-2.989,0.253-4.473,0.411c-0.304,0.032-0.609,0.061-0.913,0.095  c-1.619,0.181-3.23,0.391-4.833,0.623c-0.335,0.048-0.667,0.099-1.001,0.152c-1.527,0.231-3.049,0.48-4.56,0.758  c-0.138,0.026-0.275,0.045-0.411,0.072c-1.609,0.3-3.207,0.629-4.797,0.977c-0.345,0.076-0.689,0.152-1.031,0.23  c-1.589,0.358-3.171,0.737-4.74,1.144c-0.124,0.032-0.246,0.069-0.37,0.101c-1.491,0.392-2.968,0.809-4.44,1.245  c-0.3,0.089-0.6,0.174-0.898,0.265c-1.535,0.464-3.06,0.949-4.576,1.461c-0.255,0.086-0.508,0.174-0.761,0.263  c-1.409,0.483-2.809,0.986-4.2,1.508c-0.192,0.072-0.385,0.14-0.575,0.212c-1.501,0.572-2.989,1.169-4.466,1.786  c-0.291,0.121-0.582,0.246-0.873,0.369c-2.997,1.271-5.945,2.638-8.843,4.09c-0.275,0.139-0.549,0.275-0.824,0.414  c-1.428,0.727-2.842,1.473-4.242,2.241c-0.158,0.089-0.316,0.178-0.475,0.266c-1.311,0.727-2.61,1.475-3.897,2.237  c-0.209,0.123-0.418,0.246-0.628,0.37c-1.366,0.819-2.717,1.659-4.055,2.519c-0.231,0.149-0.462,0.301-0.695,0.452  c-1.303,0.847-2.594,1.709-3.869,2.592c-0.066,0.045-0.133,0.091-0.199,0.136c-1.321,0.92-2.624,1.865-3.915,2.825  c-0.243,0.181-0.484,0.361-0.727,0.544c-1.283,0.965-2.554,1.946-3.808,2.952c-0.066,0.053-0.13,0.107-0.196,0.159  c-1.2,0.965-2.382,1.954-3.552,2.956c-0.215,0.184-0.433,0.367-0.647,0.553c-1.192,1.034-2.371,2.083-3.533,3.151  c-0.183,0.168-0.366,0.342-0.549,0.513c-1.074,0.999-2.136,2.013-3.182,3.041c-0.145,0.14-0.29,0.278-0.433,0.42  c-1.116,1.107-2.212,2.232-3.294,3.373c-0.222,0.236-0.446,0.473-0.667,0.709c-2.174,2.32-4.277,4.707-6.308,7.158  c-0.219,0.268-0.44,0.532-0.66,0.802c-0.98,1.198-1.943,2.411-2.888,3.64c-0.154,0.2-0.301,0.402-0.455,0.603  c-0.84,1.106-1.665,2.224-2.474,3.35c-0.187,0.262-0.379,0.521-0.565,0.784c-0.879,1.243-1.742,2.5-2.586,3.768  c-0.205,0.309-0.405,0.62-0.609,0.93c-0.761,1.159-1.505,2.329-2.234,3.511c-0.118,0.192-0.24,0.38-0.355,0.572  c-0.791,1.295-1.559,2.605-2.313,3.926c-0.212,0.372-0.421,0.745-0.632,1.118c-0.736,1.317-1.46,2.64-2.159,3.979  c-0.129,0.246-0.25,0.494-0.376,0.74c-0.6,1.164-1.183,2.341-1.754,3.521c-0.189,0.391-0.379,0.78-0.563,1.172  c-0.689,1.457-1.355,2.927-1.997,4.41c-0.157,0.361-0.312,0.727-0.465,1.09c-0.657,1.548-1.298,3.103-1.905,4.677  c-0.069,0.176-0.132,0.354-0.2,0.531c-0.597,1.567-1.172,3.145-1.719,4.737c-0.07,0.2-0.142,0.399-0.211,0.6  c-0.56,1.649-1.088,3.309-1.593,4.98c-0.092,0.309-0.186,0.616-0.276,0.925c-0.462,1.567-0.906,3.144-1.318,4.729  c-0.057,0.219-0.11,0.44-0.165,0.66c-0.377,1.472-0.73,2.951-1.064,4.437c-0.061,0.272-0.126,0.543-0.186,0.815  c-0.348,1.6-0.67,3.21-0.968,4.829c-0.061,0.331-0.12,0.661-0.178,0.992c-0.295,1.669-0.576,3.34-0.818,5.026  c-1.03,7.169-1.574,14.494-1.574,21.943c0,1.688,0.035,3.372,0.092,5.045c0.013,0.386,0.029,0.768,0.044,1.153  c0.063,1.565,0.145,3.128,0.255,4.68c0.006,0.089,0.012,0.178,0.018,0.268c0.265,3.634,0.655,7.234,1.167,10.797l0,0  c10.68,74.337,74.78,131.657,152.026,131.657V380.347h-43.883V380.343z" data-original="#DB072F" class="" data-old_color="#FF0C38"/><g>
	<path style="fill:#B4002B;" d="M323.422,207.303c-0.138,0.026-0.275,0.045-0.411,0.072   C323.148,207.348,323.284,207.329,323.422,207.303z" data-original="#B4002B"/>
	<path style="fill:#B4002B;" d="M339.942,205.204c-0.247,0.019-0.494,0.041-0.742,0.06   C339.447,205.246,339.695,205.223,339.942,205.204z" data-original="#B4002B"/>
	<path style="fill:#B4002B;" d="M202.445,319.7c-0.057,0.219-0.11,0.44-0.165,0.66C202.335,320.14,202.388,319.92,202.445,319.7z" data-original="#B4002B"/>
	<path style="fill:#B4002B;" d="M201.216,324.797c-0.061,0.272-0.126,0.541-0.186,0.815   C201.09,325.339,201.155,325.069,201.216,324.797z" data-original="#B4002B"/>
	<path style="fill:#B4002B;" d="M205.843,308.465c-0.07,0.2-0.142,0.399-0.211,0.6C205.701,308.866,205.773,308.666,205.843,308.465   z" data-original="#B4002B"/>
	<path style="fill:#B4002B;" d="M312.441,209.725c-0.124,0.032-0.246,0.069-0.37,0.101   C312.196,209.794,312.317,209.759,312.441,209.725z" data-original="#B4002B"/>
	<path style="fill:#B4002B;" d="M302.158,212.797c-0.255,0.086-0.508,0.174-0.761,0.263   C301.65,212.972,301.903,212.882,302.158,212.797z" data-original="#B4002B"/>
	<path style="fill:#B4002B;" d="M273.001,226.183c-0.209,0.123-0.418,0.246-0.628,0.37   C272.583,226.428,272.794,226.305,273.001,226.183z" data-original="#B4002B"/>
	<path style="fill:#B4002B;" d="M207.761,303.198c-0.069,0.176-0.132,0.354-0.2,0.531   C207.631,303.552,207.694,303.373,207.761,303.198z" data-original="#B4002B"/>
	<path style="fill:#B4002B;" d="M255.109,238.572c-0.066,0.053-0.13,0.107-0.196,0.159   C254.979,238.678,255.043,238.624,255.109,238.572z" data-original="#B4002B"/>
	<path style="fill:#B4002B;" d="M297.196,214.569c-0.192,0.072-0.385,0.14-0.575,0.212   C296.812,214.708,297.004,214.641,297.196,214.569z" data-original="#B4002B"/>
	<path style="fill:#B4002B;" d="M251.361,241.687c-0.215,0.184-0.433,0.367-0.647,0.553   C250.928,242.055,251.146,241.872,251.361,241.687z" data-original="#B4002B"/>
	<path style="fill:#B4002B;" d="M197.492,358.4c0,1.688,0.037,3.37,0.092,5.045C197.527,361.772,197.492,360.088,197.492,358.4z" data-original="#B4002B"/>
	<path style="fill:#B4002B;" d="M292.156,216.566c-0.291,0.121-0.582,0.246-0.873,0.369   C291.574,216.812,291.865,216.687,292.156,216.566z" data-original="#B4002B"/>
	<path style="fill:#B4002B;" d="M203.763,314.969c0.092-0.309,0.184-0.616,0.276-0.925c-0.047,0.157-0.102,0.312-0.151,0.468   C203.845,314.666,203.807,314.82,203.763,314.969z" data-original="#B4002B"/>
	<path style="fill:#B4002B;" d="M328.982,206.395c-0.335,0.048-0.667,0.099-1.001,0.152   C328.315,206.494,328.647,206.443,328.982,206.395z" data-original="#B4002B"/>
	<path style="fill:#B4002B;" d="M277.374,223.68c-0.158,0.089-0.316,0.178-0.475,0.266   C277.059,223.858,277.216,223.769,277.374,223.68z" data-original="#B4002B"/>
	<path style="fill:#B4002B;" d="M318.212,208.352c-0.345,0.076-0.689,0.152-1.031,0.23   C317.525,208.503,317.867,208.428,318.212,208.352z" data-original="#B4002B"/>
	<path style="fill:#B4002B;" d="M345.996,204.894c-0.37,0.012-0.74,0.023-1.109,0.037   C345.256,204.917,345.626,204.905,345.996,204.894z" data-original="#B4002B"/>
	<path style="fill:#B4002B;" d="M200.062,330.44c-0.061,0.331-0.12,0.661-0.178,0.992C199.942,331.102,200,330.77,200.062,330.44z" data-original="#B4002B"/>
	<path style="fill:#B4002B;" d="M282.44,221.025c-0.275,0.139-0.549,0.275-0.824,0.414   C281.891,221.3,282.166,221.164,282.44,221.025z" data-original="#B4002B"/>
	<path style="fill:#B4002B;" d="M263.756,232.116c-0.066,0.045-0.133,0.091-0.199,0.136   C263.623,232.205,263.69,232.161,263.756,232.116z" data-original="#B4002B"/>
	<path style="fill:#B4002B;" d="M307.632,211.071c-0.3,0.089-0.6,0.174-0.898,0.265   C307.032,211.245,307.332,211.161,307.632,211.071z" data-original="#B4002B"/>
	<path style="fill:#B4002B;" d="M226.275,269.002c-0.187,0.262-0.379,0.521-0.565,0.784   C225.896,269.523,226.088,269.262,226.275,269.002z" data-original="#B4002B"/>
	<path style="fill:#B4002B;" d="M223.122,273.554c-0.205,0.309-0.405,0.62-0.609,0.93   C222.717,274.175,222.919,273.863,223.122,273.554z" data-original="#B4002B"/>
	<path style="fill:#B4002B;" d="M243.019,249.366c0.143-0.142,0.288-0.279,0.433-0.42   C243.307,249.085,243.162,249.224,243.019,249.366z" data-original="#B4002B"/>
	<path style="fill:#B4002B;" d="M268.319,229.072c-0.231,0.149-0.462,0.301-0.695,0.452   C267.857,229.373,268.088,229.219,268.319,229.072z" data-original="#B4002B"/>
	<path style="fill:#B4002B;" d="M229.203,265.049c-0.154,0.2-0.301,0.402-0.455,0.603   C228.902,265.452,229.05,265.248,229.203,265.049z" data-original="#B4002B"/>
	<path style="fill:#B4002B;" d="M232.749,260.607c-0.219,0.268-0.44,0.532-0.66,0.802   C232.311,261.141,232.53,260.874,232.749,260.607z" data-original="#B4002B"/>
	<path style="fill:#B4002B;" d="M259.643,235.075c-0.243,0.181-0.484,0.361-0.727,0.544   C259.158,235.437,259.4,235.257,259.643,235.075z" data-original="#B4002B"/>
	<path style="fill:#B4002B;" d="M197.898,369.546c0.262,3.634,0.654,7.234,1.167,10.797l0,0   C198.555,376.781,198.163,373.181,197.898,369.546z" data-original="#B4002B"/>
	<path style="fill:#B4002B;" d="M239.724,252.738c-0.222,0.236-0.446,0.472-0.667,0.709   C239.278,253.212,239.502,252.975,239.724,252.738z" data-original="#B4002B"/>
	<path style="fill:#B4002B;" d="M247.182,245.391c-0.183,0.17-0.366,0.342-0.549,0.513   C246.816,245.734,246.999,245.56,247.182,245.391z" data-original="#B4002B"/>
	<path style="fill:#B4002B;" d="M212.129,293.021c0.184-0.392,0.374-0.781,0.563-1.172c-0.117,0.243-0.244,0.48-0.36,0.723   C212.262,292.721,212.199,292.871,212.129,293.021z" data-original="#B4002B"/>
	<path style="fill:#B4002B;" d="M217.612,282.491c-0.212,0.372-0.421,0.745-0.632,1.118   C217.19,283.235,217.4,282.862,217.612,282.491z" data-original="#B4002B"/>
	<path style="fill:#B4002B;" d="M334.728,205.676c-0.304,0.032-0.609,0.061-0.913,0.095   C334.12,205.738,334.422,205.708,334.728,205.676z" data-original="#B4002B"/>
	<path style="fill:#B4002B;" d="M210.132,297.43c-0.157,0.361-0.312,0.727-0.465,1.09   C209.821,298.157,209.974,297.791,210.132,297.43z" data-original="#B4002B"/>
	<path style="fill:#B4002B;" d="M220.28,277.994c-0.118,0.192-0.24,0.38-0.355,0.572C220.04,278.374,220.162,278.186,220.28,277.994   z" data-original="#B4002B"/>
	<path style="fill:#B4002B;" d="M197.628,364.598c0.063,1.565,0.146,3.128,0.255,4.68   C197.771,367.726,197.691,366.165,197.628,364.598z" data-original="#B4002B"/>
	<path style="fill:#B4002B;" d="M214.822,287.587c-0.129,0.246-0.249,0.494-0.376,0.74   C214.572,288.082,214.693,287.833,214.822,287.587z" data-original="#B4002B"/>
</g><path style="fill:#D7143A;" d="M394.977,211.199c-3.556-1.062-7.167-1.998-10.825-2.804  C387.811,209.2,391.421,210.136,394.977,211.199z" data-original="#D7143A"/><path style="fill:#F2D23D;" d="M394.977,0H219.434c-12.118,0-21.943,9.825-21.943,21.943v21.943H29.263  c-12.118,0-21.943,9.825-21.943,21.943V358.4c0,12.118,9.825,21.943,21.943,21.943h168.229V358.4c0-7.45,0.544-14.775,1.574-21.943  c0.241-1.685,0.521-3.357,0.818-5.026c0.059-0.331,0.117-0.661,0.178-0.992c0.298-1.618,0.62-3.229,0.968-4.829  c0.06-0.274,0.124-0.543,0.186-0.815c0.334-1.488,0.686-2.965,1.064-4.437c0.056-0.219,0.108-0.44,0.165-0.66  c0.413-1.587,0.856-3.163,1.318-4.729c0.044-0.151,0.082-0.304,0.127-0.456c0.047-0.157,0.102-0.312,0.151-0.468  c0.505-1.672,1.033-3.331,1.593-4.98c0.069-0.2,0.14-0.399,0.211-0.6c0.549-1.592,1.121-3.171,1.719-4.737  c0.069-0.177,0.132-0.355,0.2-0.531c0.609-1.573,1.248-3.131,1.905-4.677c0.154-0.363,0.309-0.729,0.465-1.09  c0.644-1.483,1.309-2.953,1.997-4.41c0.07-0.149,0.133-0.3,0.203-0.449c0.116-0.243,0.243-0.48,0.36-0.723  c0.571-1.182,1.154-2.357,1.754-3.521c0.127-0.246,0.247-0.494,0.376-0.74c0.699-1.339,1.423-2.662,2.159-3.979  c0.211-0.373,0.42-0.746,0.632-1.118c0.753-1.319,1.521-2.632,2.313-3.926c0.116-0.192,0.237-0.38,0.355-0.572  c0.729-1.182,1.475-2.351,2.234-3.509c0.203-0.31,0.404-0.622,0.609-0.93c0.844-1.268,1.707-2.526,2.588-3.768  c0.186-0.263,0.377-0.522,0.565-0.784c0.81-1.128,1.634-2.244,2.474-3.35c0.152-0.2,0.301-0.402,0.455-0.603  c0.945-1.229,1.909-2.441,2.888-3.64c0.219-0.269,0.44-0.534,0.66-0.802c2.03-2.452,4.133-4.839,6.308-7.159  c0.221-0.237,0.445-0.474,0.667-0.709c1.083-1.14,2.178-2.266,3.294-3.373c0.143-0.142,0.288-0.279,0.433-0.42  c1.046-1.028,2.107-2.042,3.182-3.041c0.183-0.17,0.366-0.342,0.549-0.513c1.162-1.068,2.341-2.117,3.533-3.151  c0.214-0.186,0.432-0.369,0.647-0.553c1.17-1.002,2.351-1.989,3.552-2.956c0.066-0.053,0.13-0.107,0.196-0.159  c1.252-1.006,2.525-1.985,3.808-2.952c0.243-0.183,0.484-0.363,0.727-0.544c1.29-0.958,2.592-1.905,3.915-2.825  c0.066-0.045,0.133-0.091,0.199-0.136c1.274-0.884,2.566-1.745,3.869-2.592c0.231-0.151,0.462-0.303,0.695-0.452  c1.339-0.86,2.69-1.7,4.055-2.519c0.209-0.124,0.418-0.247,0.628-0.37c1.287-0.762,2.586-1.51,3.897-2.237  c0.159-0.088,0.317-0.177,0.475-0.266c1.4-0.768,2.816-1.514,4.242-2.241c0.275-0.139,0.549-0.275,0.824-0.414  c2.896-1.453,5.846-2.819,8.843-4.09c0.29-0.123,0.581-0.247,0.873-0.369c1.477-0.617,2.964-1.214,4.466-1.786  c0.19-0.072,0.383-0.14,0.575-0.212c1.391-0.524,2.791-1.025,4.2-1.508c0.255-0.089,0.508-0.177,0.762-0.263  c1.516-0.512,3.041-0.998,4.576-1.461c0.298-0.091,0.598-0.176,0.898-0.265c1.472-0.436,2.951-0.853,4.44-1.245  c0.124-0.032,0.246-0.069,0.37-0.101c1.568-0.407,3.151-0.786,4.74-1.144c0.342-0.079,0.686-0.154,1.031-0.23  c1.59-0.348,3.189-0.677,4.797-0.977c0.138-0.026,0.275-0.045,0.411-0.072c1.511-0.276,3.033-0.525,4.56-0.758  c0.334-0.051,0.666-0.102,1.001-0.152c1.603-0.233,3.214-0.442,4.833-0.623c0.304-0.034,0.609-0.063,0.913-0.095  c1.485-0.158,2.975-0.296,4.473-0.411c0.247-0.019,0.494-0.041,0.742-0.06c1.641-0.118,3.29-0.208,4.946-0.274  c0.369-0.015,0.739-0.026,1.109-0.037c1.693-0.057,3.389-0.094,5.095-0.094c7.45,0,14.773,0.544,21.943,1.574  c3.749,0.538,7.459,1.214,11.118,2.02c3.659,0.806,7.27,1.741,10.825,2.804c7.575,2.262,14.905,5.089,21.943,8.442V21.943  C416.92,9.825,407.096,0,394.977,0z" data-original="#F2D23D"/><path style="fill:#E69629;" d="M199.066,380.343c-0.513-3.564-0.906-7.162-1.167-10.797c-0.006-0.089-0.012-0.178-0.018-0.268  c-0.108-1.554-0.192-3.114-0.255-4.68c-0.016-0.385-0.031-0.767-0.044-1.153c-0.054-1.675-0.091-3.357-0.091-5.045v21.943H199.066z" data-original="#E69629"/><path style="fill:#EEBF00" d="M29.263,43.886c-12.118,0-21.943,9.825-21.943,21.943V358.4c0,12.118,9.825,21.943,21.943,21.943  h168.229V358.4V43.886H29.263z" data-original="#EEBF00" class="active-path"/></g></g> </svg>
